<!--
    ____ _                 _  ____      _ _           _   _             ___
   / ___| | ___  _   _  __| |/ ___|___ | | | ___  ___| |_(_) ___  _ __ / _ \ _ __  _ __
  | |   | |/ _ \| | | |/ _` | |   / _ \| | |/ _ \/ __| __| |/ _ \| `_ \| | | | `_ \| `_ |
  | |___| | (_) | |_| | (_| | |__| (_) | | |  __/ (__| |_| | (_) | | | | |_| | |_) | |_) |
   \____|_|\___/ \__,_|\__,_|\____\___/|_|_|\___|\___|\__|_|\___/|_| |_|\___/| .__/| .__/
                                                                             |_|   |_|
  Projet : CloudCollectionApp
  Date de creation : 2026-05-04
  Auteurs : Codex et Binda Sébastien
  Licence : Apache 2.0

  Description : favicon SVG representant une manette devant une bibliotheque de jeux.
-->
<svg xmlns="http://www.w3.org/2000/svg" viewBox="0 0 64 64" role="img" aria-label="CloudCollectionApp">
  <rect width="64" height="64" rx="14" fill="#0f172a" />
  <rect x="13" y="12" width="38" height="28" rx="4" fill="#f8fafc" />
  <rect x="17" y="16" width="6" height="20" rx="1.5" fill="#2563eb" />
  <rect x="26" y="16" width="5" height="20" rx="1.5" fill="#16a34a" />
  <rect x="34" y="16" width="5" height="20" rx="1.5" fill="#f59e0b" />
  <rect x="42" y="16" width="5" height="20" rx="1.5" fill="#dc2626" />
  <path d="M14 42c2.5-6 7-8 13-6l4 1h2l4-1c6-2 10.5 0 13 6l2 7c.8 3-1 5-3.6 5-1.8 0-3.2-.8-4.4-2.2L40.8 48H23.2L20 51.8C18.8 53.2 17.4 54 15.6 54 13 54 11.2 52 12 49l2-7Z" fill="#e2e8f0" />
  <circle cx="24" cy="43" r="2" fill="#0f172a" />
  <rect x="20" y="42" width="8" height="2" rx="1" fill="#0f172a" />
  <circle cx="41" cy="42" r="1.8" fill="#2563eb" />
  <circle cx="46" cy="45" r="1.8" fill="#16a34a" />
</svg>
